<?xml version="1.0" ?>
<svg
  xmlns="http://www.w3.org/2000/svg"
  xmlns:xlink="http://www.w3.org/1999/xlink"
  version="1.1"
  viewBox="20 3 35 59" 
  width="24px"
  height="22px">
  <g fill="none" fill-rule="evenodd" stroke="none" stroke-width="1">
    <circle cx="30.5" cy="51.5" fill="#000000" r="3.5" />
    <path
      d="M41,3.5 L20,3.5 C16.4101491,3.5 13.5,6.41014913 13.5,10 L13.5,55 C13.5,58.5898509 16.4101491,61.5 20,61.5 L41,61.5 C44.5898509,61.5 47.5,58.5898509 47.5,55 L47.5,10 C47.5,6.41014913 44.5898509,3.5 41,3.5 Z M20,8.5 L41,8.5 C41.8284271,8.5 42.5,9.17157288 42.5,10 L42.5,55 C42.5,55.8284271 41.8284271,56.5 41,56.5 L20,56.5 C19.1715729,56.5 18.5,55.8284271 18.5,55 L18.5,10 C18.5,9.17157288 19.1715729,8.5 20,8.5 Z"
      fill="#000000"
      fill-rule="nonzero"
    />
  </g>
</svg>